<svg id="Layer_1" data-name="Layer 1" xmlns="http://www.w3.org/2000/svg" viewBox="0 0 22 22"><defs><style>.cls-1{fill:#2371f3;}</style></defs><path class="cls-1" d="M8,4.75H8A1.71,1.71,0,0,1,8,7.17l-5,5a1.71,1.71,0,0,1-2.42,0h0a1.7,1.7,0,0,1,0-2.41l5-5A1.71,1.71,0,0,1,8,4.75Z"/><path class="cls-1" d="M22,3.63h0a1.72,1.72,0,0,1-1.71,1.71H13.17a1.72,1.72,0,0,1-1.71-1.71h0a1.72,1.72,0,0,1,1.71-1.71h7.12A1.72,1.72,0,0,1,22,3.63Z"/><path class="cls-1" d="M13.17,1.92h0a1.72,1.72,0,0,1,1.71,1.71v7.12a1.72,1.72,0,0,1-1.71,1.71h0a1.72,1.72,0,0,1-1.71-1.71V3.63A1.72,1.72,0,0,1,13.17,1.92Z"/><path class="cls-1" d="M11.45,18.37h0a1.72,1.72,0,0,1,1.71-1.71h7.12A1.72,1.72,0,0,1,22,18.37h0a1.72,1.72,0,0,1-1.71,1.71H13.16A1.72,1.72,0,0,1,11.45,18.37Z"/><path class="cls-1" d="M20.29,20.08h0a1.72,1.72,0,0,1-1.71-1.71V11.25a1.72,1.72,0,0,1,1.71-1.71h0A1.72,1.72,0,0,1,22,11.25v7.12A1.72,1.72,0,0,1,20.29,20.08Z"/><path class="cls-1" d="M.5,9.79h0a1.71,1.71,0,0,1,2.42,0l5,5a1.71,1.71,0,0,1,0,2.42H8a1.73,1.73,0,0,1-2.42,0l-5-5A1.73,1.73,0,0,1,.5,9.79Z"/></svg>