<svg id="Layer_1" data-name="Layer 1" xmlns="http://www.w3.org/2000/svg" viewBox="0 0 87 19"><defs><style>.cls-1{fill:#2371f3;}</style></defs><rect class="cls-1" x="1.54" y="4.81" width="2.05" height="6.34" rx="0.92" transform="translate(6.4 0.53) rotate(45)"/><rect class="cls-1" x="9.05" y="1.89" width="2.05" height="6.34" rx="0.92" transform="translate(15.15 -5.02) rotate(90)"/><rect class="cls-1" x="6.91" y="4.04" width="2.05" height="6.34" rx="0.92"/><rect class="cls-1" x="9.05" y="10.77" width="2.05" height="6.34" rx="0.92" transform="translate(-3.85 24.02) rotate(-90)"/><rect class="cls-1" x="11.2" y="8.62" width="2.05" height="6.34" rx="0.92" transform="translate(24.45 23.59) rotate(-180)"/><rect class="cls-1" x="1.54" y="7.85" width="2.05" height="6.34" rx="0.92" transform="translate(-7.04 5.04) rotate(-45)"/><path d="M25.94,8a1.27,1.27,0,0,1,.35-1,1.31,1.31,0,0,1,1-.35h4a1.33,1.33,0,0,1,1,.35,1.35,1.35,0,0,1,.34,1v4a1.37,1.37,0,0,1-.34,1,1.33,1.33,0,0,1-1,.35h-4a1.31,1.31,0,0,1-1-.35,1.29,1.29,0,0,1-.35-1Zm1.32-.13v4.24h4V7.89Z"/><path d="M34.68,7.35a.58.58,0,0,1,.65-.65h4.75a1.34,1.34,0,0,1,1,.35,1.3,1.3,0,0,1,.34,1v4a1.2,1.2,0,0,1-1.31,1.33H37.44a.53.53,0,0,1-.59-.61.52.52,0,0,1,.59-.58h2.64V7.89H36v4.86a.58.58,0,0,1-.67.65.58.58,0,0,1-.65-.65Z"/><path d="M44.14,6.7h4.73a.53.53,0,0,1,.59.6.52.52,0,0,1-.59.59H44.81v4.24h4.12a.53.53,0,0,1,.59.6.52.52,0,0,1-.59.59H44.14a.58.58,0,0,1-.65-.65V7.35A.58.58,0,0,1,44.14,6.7Zm1.54,3.22a.51.51,0,0,1,.59-.58h1.79a.51.51,0,0,1,.58.58c0,.41-.19.61-.58.61H46.27C45.87,10.53,45.68,10.33,45.68,9.92Z"/><path d="M53.54,6.7h3.24a.53.53,0,0,1,.6.59h0a.52.52,0,0,1-.6.59H53.62a.75.75,0,0,0-.55.16.76.76,0,0,0-.15.54.8.8,0,0,0,.15.55.75.75,0,0,0,.55.16H56a2,2,0,0,1,1.49.53A2,2,0,0,1,58,11.3a2,2,0,0,1-.52,1.49,2,2,0,0,1-1.49.53H52.47c-.38,0-.57-.2-.57-.61a.51.51,0,0,1,.57-.58h3.44a.8.8,0,0,0,.59-.19,1,1,0,0,0,.17-.64.87.87,0,0,0-.18-.61.75.75,0,0,0-.58-.19H53.54A1.91,1.91,0,0,1,52.12,10a1.83,1.83,0,0,1-.5-1.38,1.9,1.9,0,0,1,.5-1.41A2,2,0,0,1,53.54,6.7Z"/><path d="M60.72,6.62h0a.56.56,0,0,1,.63.64v5.49a.58.58,0,0,1-.66.65.57.57,0,0,1-.65-.65V7.26A.57.57,0,0,1,60.72,6.62Zm1.52,3.32a.5.5,0,0,1,.57-.57h2.71V7.26c0-.43.23-.64.68-.64a.56.56,0,0,1,.64.64v5.49a.58.58,0,0,1-.67.65.58.58,0,0,1-.65-.65V10.53H62.81A.51.51,0,0,1,62.24,9.94Z"/><path d="M69.59,6.64h0a.56.56,0,0,1,.63.63v5.48a.58.58,0,0,1-.66.65.57.57,0,0,1-.65-.65V7.27C68.94,6.85,69.15,6.64,69.59,6.64Z"/><path d="M73,6.7h4.65a.53.53,0,0,1,.59.6.52.52,0,0,1-.59.59h-4v4.86a.59.59,0,0,1-.67.65.58.58,0,0,1-.65-.65V7.35A.58.58,0,0,1,73,6.7Zm1.54,3.22a.51.51,0,0,1,.57-.58h1.81a.52.52,0,0,1,.58.6.52.52,0,0,1-.58.59H75.11C74.73,10.53,74.54,10.33,74.54,9.92Z"/><path d="M80.34,7.29a.52.52,0,0,1,.58-.59h5.49a.53.53,0,0,1,.59.6.52.52,0,0,1-.59.59H80.92C80.53,7.89,80.34,7.69,80.34,7.29ZM83,12.75V9.27a.57.57,0,0,1,.65-.63h0a.56.56,0,0,1,.64.63v3.48a.58.58,0,0,1-.67.65A.58.58,0,0,1,83,12.75Z"/><path d="M23.84,12.73a.52.52,0,0,1-.58.59h-4.4a1.12,1.12,0,0,1-1.23-1.23V7.94A1.2,1.2,0,0,1,18,7a1.23,1.23,0,0,1,.91-.32H23.1a.52.52,0,0,1,.58.59.52.52,0,0,1-.58.59H18.92v4.25h4.34A.53.53,0,0,1,23.84,12.73Z"/></svg>