<?xml version="1.0" standalone="no"?>
<!DOCTYPE svg PUBLIC "-//W3C//DTD SVG 20010904//EN" "http://www.w3.org/TR/2001/REC-SVG-20010904/DTD/svg10.dtd">
<svg version="1.0" xmlns="http://www.w3.org/2000/svg"
  width="459.000000pt" height="459.000000pt" viewBox="0 0 459.000000 459.000000"
  preserveAspectRatio="xMidYMid meet">
  <metadata> Created by potrace 1.14, written by Peter Selinger 2001-2017 </metadata>
  <g transform="translate(0.000000,459.000000) scale(0.100000,-0.100000)"
    fill="#1e72f3" stroke="none">
    <path
      d="M2562 4156 c-49 -17 -99 -62 -124 -109 l-22 -42 1 -926 c1 -912 2
-927 22 -966 22 -43 69 -88 110 -106 34 -14 354 -19 412 -6 59 13 111 56 140
115 l22 47 0 648 0 649 640 0 c450 0 651 3 678 11 52 16 103 61 128 112 19 39
21 61 21 224 0 232 -14 275 -110 331 l-45 27 -920 2 c-676 1 -929 -2 -953 -11z" />
    <path
      d="M1357 3723 c-49 -24 -1311 -1283 -1339 -1337 -28 -55 -22 -159 13
-207 41 -58 1291 -1297 1324 -1313 46 -22 103 -26 157 -9 41 12 69 34 177 141
70 70 136 143 146 162 25 47 25 143 0 190 -10 19 -222 239 -472 489 l-454 455
454 455 c250 251 463 472 473 491 25 50 24 135 -3 186 -26 51 -245 270 -293
293 -48 24 -135 26 -183 4z" />
    <path
      d="M4050 2589 c-54 -11 -113 -59 -140 -114 l-25 -50 0 -647 c0 -425 -3
-648 -10 -649 -5 0 -300 -1 -655 -2 l-645 -2 -42 -22 c-45 -24 -84 -69 -103
-118 -8 -19 -12 -96 -12 -211 0 -200 9 -240 68 -296 64 -60 32 -58 1026 -58
994 0 947 -3 1012 58 16 15 37 45 47 67 18 38 19 86 19 960 0 898 -1 921 -20
964 -11 24 -33 55 -48 68 -55 50 -85 56 -268 57 -94 1 -186 -2 -204 -5z" />
  </g>
</svg>